<svg xmlns="http://www.w3.org/2000/svg" xmlns:xlink="http://www.w3.org/1999/xlink"><defs><symbol viewBox="0 0 512 512" id="logo"><circle cx="256" cy="256" r="256" fill="#164370" /><circle cx="256" cy="256" r="188.484" fill="#276aad" /><circle cx="256" cy="256" r="120.967" fill="#3891e9" /><path d="M312.264 247.56h-35.888l25.377-25.377a8.44 8.44 0 00-11.935-11.936l-25.378 25.377-16.879 40.751v35.888a8.44 8.44 0 008.44 8.44 8.44 8.44 0 008.44-8.44v-35.888l25.377 25.377a8.414 8.414 0 005.967 2.471 8.44 8.44 0 005.967-14.407l-25.376-25.377h35.888a8.44 8.44 0 100-16.879z" fill="#ffd159" /><path d="M256 191.297a8.44 8.44 0 00-8.44 8.44v35.888l-25.377-25.377a8.44 8.44 0 00-11.935 11.936l25.376 25.377h-35.888a8.44 8.44 0 00-8.44 8.44 8.44 8.44 0 008.44 8.44h35.888l-25.377 25.377a8.44 8.44 0 0011.934 11.936l25.378-25.377 16.879-40.751v-35.888a8.436 8.436 0 00-8.438-8.441z" fill="#fff" /><path d="M256 210.989L244.747 256 256 301.011c24.858 0 45.011-20.153 45.011-45.011S280.858 210.989 256 210.989z" fill="#f5ac51" /><path d="M210.989 256c0 24.858 20.153 45.011 45.011 45.011v-90.022c-24.858 0-45.011 20.153-45.011 45.011z" fill="#ffd159" /><path d="M256 112.527l-11.253 22.505L256 157.538c12.43 0 22.505-10.076 22.505-22.505S268.43 112.527 256 112.527z" fill="#e26142" /><path d="M67.516 227.868L56.264 256l11.253 28.132c15.537 0 28.132-12.595 28.132-28.132s-12.596-28.132-28.133-28.132z" fill="#f1866d" /><path d="M74.98 41.222L63.728 74.98l11.253 33.758c18.645 0 33.758-15.115 33.758-33.758S93.625 41.222 74.98 41.222z" fill="#7cc8ef" /><path d="M41.222 74.98c0 18.644 15.114 33.758 33.758 33.758V41.222c-18.643 0-33.758 15.115-33.758 33.758z" fill="#8fe1ea" /><path d="M233.495 135.033c0 12.43 10.076 22.505 22.505 22.505v-45.011c-12.43 0-22.505 10.076-22.505 22.506z" fill="#f1866d" /><path d="M39.385 256c0 15.537 12.595 28.132 28.132 28.132v-56.264c-15.537 0-28.132 12.595-28.132 28.132z" fill="#f5ac51" /><circle cx="478.242" cy="256" r="8.44" fill="#fff" /><g fill="#68aef4"><circle cx="55.089" cy="456.907" r="8.44" /><circle cx="456.907" cy="55.089" r="8.44" /></g><g fill="#fff"><circle cx="413.145" cy="413.145" r="8.44" /><circle cx="98.855" cy="413.145" r="8.44" /><circle cx="398.944" cy="196.788" r="8.44" /></g></symbol></defs></svg>